<svg id="Laag_1" data-name="Laag 1" xmlns="http://www.w3.org/2000/svg" viewBox="0 0 225.31 356.79"><title>lootbag</title><path d="M135,229l1.5,22.39c.64,9.39,1.22,18.79,1.94,28.18a18,18,0,0,1-4.4,13.35C115.79,315.39,97.68,338,79.5,360.56c-5.19,6.44-11.12,8.38-18.09,6-9.73-3.32-13.14-15.6-6.53-23.95,6.24-7.88,12.63-15.64,18.95-23.46,11-13.58,22-27.13,32.83-40.79a6.32,6.32,0,0,0,1-4c-.71-11.59-1.68-23.16-2.31-34.76-.84-15.6-1.46-31.21-2.13-46.83a6.69,6.69,0,0,1,.53-3.44c6.69-11.94,9.55-25,11.64-38.33,1.93-12.28,3.42-24.62,5.65-36.84a60.6,60.6,0,0,1,5.11-15.51c3.17-6.55,8.49-8.84,15.54-6.94a104.69,104.69,0,0,1,16.06,6.12c1.44.65,2.36,2.86,3.12,4.53,6.22,13.72,12.35,27.49,18.51,41.23a4.36,4.36,0,0,0,.67.74l23.82-15.09c3.24-2.05,6.43-4.17,9.72-6.14a13,13,0,0,1,13.84,22q-22.86,14.63-45.81,29.1c-7.79,4.88-16.24,2.11-20-6.29a113.43,113.43,0,0,0-6.14-12.35c-.32,3.19-.83,6.38-.92,9.58-.29,10.33-.46,20.66-.57,31a7,7,0,0,0,.94,3.33q11.81,21.64,23.72,43.23c6.95,12.63,13.93,25.25,20.84,37.9a15,15,0,0,1,0,15.19c-11.38,20.84-22.88,41.61-34.1,62.53-5.16,9.62-15,10.82-21.29,7.38a15.19,15.19,0,0,1-6.16-20.77c5.44-10.14,11-20.19,16.56-30.28,4.52-8.26,9.06-16.49,13.47-24.8a3.9,3.9,0,0,0,.06-3.19q-15.37-28.29-30.93-56.46a10,10,0,0,0-1.25-1.52Z" transform="translate(-8.18 -10.75)"/><path d="M231.24,120.05a21.86,21.86,0,0,0-13.31-3,10.35,10.35,0,0,1-4.81-1.1c-8-3.58-15.8-7.53-23.87-10.89-10.34-4.3-20.83-8.24-31.31-12.19a128.3,128.3,0,0,0-15.79-5.28c-9-2.12-15.76,1.23-20.09,9.35-3.93,7.37-5.38,15.48-6.68,23.6-2.39,15-4.46,30-7.17,44.88A62.7,62.7,0,0,1,98,190.3c-6.38,9.09-15.21,14.34-26.16,15.07-19.25,1.29-37-3.27-51.48-16.56C9.43,178.83,5.49,166.24,10,152c6-18.77,14-36.69,25.74-52.67C45.43,86.17,57.16,75.6,72.7,69.79c13-4.88,26.4-5.42,40-3.37,16.56,2.49,32.15,8.07,47.32,15,18.22,8.35,36.58,16.4,54.79,24.77A38.05,38.05,0,0,1,230.6,119C230.84,119.31,231,119.68,231.24,120.05Z" transform="translate(-8.18 -10.75)"/><path d="M172,10.75c16.79.15,31.69,10.65,36.74,25.88,5.53,16.65.52,33.8-13.24,44.11-3.22,2.41-7.15,3.9-10.87,5.56a5.14,5.14,0,0,1-3.55-.3q-21-8.62-41.9-17.45a5.88,5.88,0,0,1-2.75-2.69C124.46,40.27,143.7,10.5,172,10.75Z" transform="translate(-8.18 -10.75)"/></svg>